<?xml version="1.0" encoding="UTF-8"?>
<!DOCTYPE svg PUBLIC "-//W3C//DTD SVG 1.1//EN" "http://www.w3.org/Graphics/SVG/1.1/DTD/svg11.dtd">
<svg xmlns="http://www.w3.org/2000/svg" version="1.1" width="200px" height="200px" style="shape-rendering:geometricPrecision; text-rendering:geometricPrecision; image-rendering:optimizeQuality; fill-rule:evenodd; clip-rule:evenodd" xmlns:xlink="http://www.w3.org/1999/xlink">
<g><path style="opacity:0.998" fill="#f69075" d="M 108.5,38.5 C 106.918,37.1242 105.085,36.1242 103,35.5C 85.449,39.7833 67.949,44.1167 50.5,48.5C 48.8942,47.2197 47.8942,47.7197 47.5,50C 48.1629,79.8754 48.8295,109.709 49.5,139.5C 48.1779,139.67 47.0113,139.337 46,138.5C 45.1693,106.664 45.336,74.9973 46.5,43.5C 49.4282,43.4349 52.0948,42.7682 54.5,41.5C 57.4282,41.4349 60.0948,40.7682 62.5,39.5C 65.7814,39.5797 68.7814,38.913 71.5,37.5C 74.4282,37.4349 77.0948,36.7682 79.5,35.5C 82.7814,35.5797 85.7814,34.913 88.5,33.5C 89.5676,32.5655 90.901,32.2322 92.5,32.5C 95.7814,32.5797 98.7814,31.913 101.5,30.5C 104.102,29.0313 106.269,29.698 108,32.5C 108.495,34.4727 108.662,36.4727 108.5,38.5 Z"/></g>
<g><path style="opacity:0.682" fill="#f4c4b8" d="M 101.5,30.5 C 98.7814,31.913 95.7814,32.5797 92.5,32.5C 95.2186,31.087 98.2186,30.4203 101.5,30.5 Z"/></g>
<g><path style="opacity:0.667" fill="#f4c5b9" d="M 88.5,33.5 C 85.7814,34.913 82.7814,35.5797 79.5,35.5C 82.2186,34.087 85.2186,33.4203 88.5,33.5 Z"/></g>
<g><path style="opacity:0.549" fill="#f3c9bf" d="M 79.5,35.5 C 77.0948,36.7682 74.4282,37.4349 71.5,37.5C 73.8383,35.9605 76.5049,35.2938 79.5,35.5 Z"/></g>
<g><path style="opacity:1" fill="#9b1f25" d="M 108.5,38.5 C 109.609,38.5569 110.609,38.8902 111.5,39.5C 111.821,41.0481 112.821,41.7148 114.5,41.5C 115.167,41.8333 115.833,42.1667 116.5,42.5C 116.611,43.1174 116.944,43.6174 117.5,44C 100.639,47.9082 83.9724,52.0749 67.5,56.5C 59.7851,57.8063 54.1184,55.1396 50.5,48.5C 67.949,44.1167 85.449,39.7833 103,35.5C 105.085,36.1242 106.918,37.1242 108.5,38.5 Z"/></g>
<g><path style="opacity:0.737" fill="#f4bfb1" d="M 71.5,37.5 C 68.7814,38.913 65.7814,39.5797 62.5,39.5C 65.2186,38.087 68.2186,37.4203 71.5,37.5 Z"/></g>
<g><path style="opacity:0.698" fill="#f4c3b6" d="M 62.5,39.5 C 60.0948,40.7682 57.4282,41.4349 54.5,41.5C 56.8383,39.9605 59.5049,39.2938 62.5,39.5 Z"/></g>
<g><path style="opacity:0.91" fill="#ca8886" d="M 111.5,39.5 C 112.71,39.9321 113.71,40.5987 114.5,41.5C 112.821,41.7148 111.821,41.0481 111.5,39.5 Z"/></g>
<g><path style="opacity:0.855" fill="#f4b3a3" d="M 54.5,41.5 C 52.0948,42.7682 49.4282,43.4349 46.5,43.5C 48.8383,41.9605 51.5049,41.2938 54.5,41.5 Z"/></g>
<g><path style="opacity:1" fill="#f7b06b" d="M 116.5,42.5 C 119.249,42.2739 121.916,42.6072 124.5,43.5C 125.95,44.8498 126.617,46.5165 126.5,48.5C 127.791,48.2627 128.791,48.596 129.5,49.5C 109.954,52.4247 90.6211,56.4247 71.5,61.5C 71.5,90.1667 71.5,118.833 71.5,147.5C 70.5084,147.328 69.8417,147.662 69.5,148.5C 68.8333,148.5 68.1667,148.5 67.5,148.5C 67.5,117.833 67.5,87.1667 67.5,56.5C 83.9724,52.0749 100.639,47.9082 117.5,44C 116.944,43.6174 116.611,43.1174 116.5,42.5 Z"/></g>
<g><path style="opacity:0.999" fill="#f28160" d="M 129.5,49.5 C 130.167,49.5 130.5,49.8333 130.5,50.5C 130.5,52.1667 130.5,53.8333 130.5,55.5C 129.085,54.7106 127.585,54.0439 126,53.5C 109.211,57.7391 92.3774,61.7391 75.5,65.5C 74.0047,65.4148 73.0047,66.0815 72.5,67.5C 73.4916,96.1225 73.825,124.789 73.5,153.5C 72.8333,151.5 72.1667,149.5 71.5,147.5C 71.5,118.833 71.5,90.1667 71.5,61.5C 90.6211,56.4247 109.954,52.4247 129.5,49.5 Z"/></g>
<g><path style="opacity:1" fill="#e15d64" d="M 50.5,48.5 C 54.1184,55.1396 59.7851,57.8063 67.5,56.5C 67.5,87.1667 67.5,117.833 67.5,148.5C 63.9244,147.515 60.2577,146.848 56.5,146.5C 55.5084,146.672 54.8417,146.338 54.5,145.5C 54.0269,144.094 53.0269,143.427 51.5,143.5C 50.3263,142.486 49.6596,141.153 49.5,139.5C 48.8295,109.709 48.1629,79.8754 47.5,50C 47.8942,47.7197 48.8942,47.2197 50.5,48.5 Z"/></g>
<g><path style="opacity:0.305" fill="#edc5be" d="M 130.5,50.5 C 131.285,52.3736 131.952,54.3736 132.5,56.5C 131.508,56.6716 130.842,56.3382 130.5,55.5C 130.5,53.8333 130.5,52.1667 130.5,50.5 Z"/></g>
<g><path style="opacity:1" fill="#9b1f25" d="M 130.5,55.5 C 130.842,56.3382 131.508,56.6716 132.5,56.5C 133.167,56.8333 133.833,57.1667 134.5,57.5C 134.821,59.0481 135.821,59.7148 137.5,59.5C 138.492,59.3284 139.158,59.6618 139.5,60.5C 139.5,60.8333 139.5,61.1667 139.5,61.5C 123.512,65.1654 107.512,68.8321 91.5,72.5C 85.7009,73.9615 80.5343,72.6282 76,68.5C 75.5172,67.552 75.3505,66.552 75.5,65.5C 92.3774,61.7391 109.211,57.7391 126,53.5C 127.585,54.0439 129.085,54.7106 130.5,55.5 Z"/></g>
<g><path style="opacity:0.933" fill="#c67d7b" d="M 134.5,57.5 C 135.71,57.9321 136.71,58.5987 137.5,59.5C 135.821,59.7148 134.821,59.0481 134.5,57.5 Z"/></g>
<g><path style="opacity:0.757" fill="#f3d3b6" d="M 146.5,61.5 C 144.167,61.5 141.833,61.5 139.5,61.5C 139.5,61.1667 139.5,60.8333 139.5,60.5C 141.144,60.7135 142.644,60.3802 144,59.5C 144.995,60.0659 145.828,60.7326 146.5,61.5 Z"/></g>
<g><path style="opacity:1" fill="#f8b36c" d="M 139.5,61.5 C 141.833,61.5 144.167,61.5 146.5,61.5C 147.117,61.6107 147.617,61.944 148,62.5C 148.667,91.1667 148.667,119.833 148,148.5C 146.829,149.893 145.329,150.727 143.5,151C 138.878,152.156 134.211,152.99 129.5,153.5C 126.572,153.565 123.905,154.232 121.5,155.5C 113.034,157.95 104.368,160.116 95.5,162C 92.3035,162.805 89.3035,162.638 86.5,161.5C 88.1667,161.5 89.8333,161.5 91.5,161.5C 91.5,131.833 91.5,102.167 91.5,72.5C 107.512,68.8321 123.512,65.1654 139.5,61.5 Z"/></g>
<g><path style="opacity:1" fill="#e15e64" d="M 75.5,65.5 C 75.3505,66.552 75.5172,67.552 76,68.5C 80.5343,72.6282 85.7009,73.9615 91.5,72.5C 91.5,102.167 91.5,131.833 91.5,161.5C 89.8333,161.5 88.1667,161.5 86.5,161.5C 83.8478,161.59 81.5145,160.924 79.5,159.5C 79.0269,158.094 78.0269,157.427 76.5,157.5C 75.0937,157.027 74.427,156.027 74.5,154.5C 74.5,153.833 74.1667,153.5 73.5,153.5C 73.825,124.789 73.4916,96.1225 72.5,67.5C 73.0047,66.0815 74.0047,65.4148 75.5,65.5 Z"/></g>
<g><path style="opacity:0.675" fill="#edb5b8" d="M 51.5,143.5 C 53.0269,143.427 54.0269,144.094 54.5,145.5C 52.9731,145.573 51.9731,144.906 51.5,143.5 Z"/></g>
<g><path style="opacity:0.384" fill="#edb8b8" d="M 56.5,146.5 C 60.2577,146.848 63.9244,147.515 67.5,148.5C 68.1667,148.5 68.8333,148.5 69.5,148.5C 69.0831,149.124 68.4164,149.457 67.5,149.5C 63.5639,149.023 59.8973,148.023 56.5,146.5 Z"/></g>
<g><path style="opacity:0.508" fill="#f3c5b5" d="M 69.5,148.5 C 69.8417,147.662 70.5084,147.328 71.5,147.5C 72.1667,149.5 72.8333,151.5 73.5,153.5C 74.1667,153.5 74.5,153.833 74.5,154.5C 73.5,154.5 72.5,154.5 71.5,154.5C 71.9746,151.918 71.3079,149.918 69.5,148.5 Z"/></g>
<g><path style="opacity:0.02" fill="#f3e5d7" d="M 129.5,153.5 C 127.162,155.04 124.495,155.706 121.5,155.5C 123.905,154.232 126.572,153.565 129.5,153.5 Z"/></g>
<g><path style="opacity:0.384" fill="#edbabc" d="M 76.5,157.5 C 78.0269,157.427 79.0269,158.094 79.5,159.5C 77.9731,159.573 76.9731,158.906 76.5,157.5 Z"/></g>
</svg>
