<svg xmlns="http://www.w3.org/2000/svg" xmlns:xlink="http://www.w3.org/1999/xlink" version="1.1" x="0px" y="0px" viewBox="0 0 50 62.5" enable-background="new 0 0 50 50" xml:space="preserve"><g><path fill-rule="evenodd" clip-rule="evenodd" d="M24.2,31.278l0.713-1.36l0.393,2.246L24.2,31.278z M21.975,26.83l-0.856,1.977   l-0.432-0.347l-0.22-2.282L21.975,26.83z M0,46.645l50,0L25,3.355L0,46.645z M25,9.032l20.081,34.773l-40.163,0L25,9.032z    M27.287,33.752l-0.733-6.896l-1.33-0.578c0.84,0.082,1.638-0.393,1.975-1.169c0.435-0.989-0.031-2.143-1.017-2.571   c-0.991-0.429-2.141,0.027-2.57,1.018c-0.337,0.78-0.133,1.679,0.498,2.241l-5.692-2.462c0.138,1.62,0.302,3.239,0.448,4.858   l1.869,1.499c-1.484,3.426-2.881,6.897-4.292,10.355l1.969,0.852l3.228-7.873l1.986,2.957l-1.728,4.045l1.97,0.853l2.19-5.126   l-2.362-3.517l0.064-0.122l5.187,4.159l1.219,0.977l-4.153,3.543h14.061l-7.029-5.998l-2.158,1.841L29.74,35.72L27.287,33.752z"/></g></svg>